<svg width="528" height="677" viewBox="0 0 528 677" fill="none" xmlns="http://www.w3.org/2000/svg">
<path d="M395.886 17.7826L63.2344 138.225C48.4772 143.569 38.2083 157.048 36.9756 172.694L4.59856 583.634C2.38719 611.701 29.0937 633.209 56.0447 625.066L455.504 504.366C473.578 498.904 485.372 481.549 483.795 462.734L449.364 52.0514C447.164 25.8102 420.646 8.81767 395.886 17.7826Z" stroke="#1960C9"/>
<path d="M436.886 52.7826L104.234 173.225C89.4772 178.569 79.2083 192.048 77.9756 207.694L45.5986 618.634C43.3872 646.701 70.0937 668.209 97.0447 660.066L496.504 539.366C514.578 533.904 526.372 516.549 524.795 497.734L490.364 87.0514C488.164 60.8102 461.646 43.8177 436.886 52.7826Z" stroke="#1960C9"/>
</svg>
